<svg height="512pt" viewBox="-18 0 512 512" width="512pt" xmlns="http://www.w3.org/2000/svg"><path d="m476.691406 158.898438v317.792968c0 19.5-15.8125 35.308594-35.3125 35.308594h-406.070312c-19.5 0-35.308594-15.808594-35.308594-35.308594v-317.792968zm0 0" fill="#e6e7e8"/><path d="m0 158.898438v-88.277344c0-19.5 15.808594-35.3125 35.308594-35.3125h406.070312c19.5 0 35.3125 15.8125 35.3125 35.3125v88.277344zm0 0" fill="#c03a2b"/><path d="m114.757812 57.730469c13.839844 7.992187 20.589844 24.285156 16.453126 39.71875-4.136719 15.4375-18.125 26.171875-34.109376 26.171875-15.980468 0-29.96875-10.734375-34.105468-26.171875-4.136719-15.433594 2.613281-31.726563 16.453125-39.71875" fill="#2c2f38"/><path d="m256 57.730469c13.839844 7.992187 20.589844 24.285156 16.453125 39.71875-4.136719 15.4375-18.125 26.171875-34.109375 26.171875-15.980469 0-29.96875-10.734375-34.105469-26.171875-4.136719-15.433594 2.609375-31.726563 16.453125-39.71875" fill="#2c2f38"/><path d="m397.242188 57.730469c13.839843 7.992187 20.585937 24.285156 16.453124 39.71875-4.136718 15.4375-18.128906 26.171875-34.109374 26.171875-15.980469 0-29.96875-10.734375-34.105469-26.171875-4.136719-15.433594 2.609375-31.726563 16.449219-39.71875" fill="#2c2f38"/><g fill="#a5a5a4"><path d="m44.136719 203.035156h-8.828125c-4.875 0-8.824219-3.953125-8.824219-8.828125s3.949219-8.828125 8.824219-8.828125h8.828125c4.875 0 8.828125 3.953125 8.828125 8.828125s-3.953125 8.828125-8.828125 8.828125zm0 0"/><path d="m88.277344 203.035156h-8.828125c-4.875 0-8.828125-3.953125-8.828125-8.828125s3.953125-8.828125 8.828125-8.828125h8.828125c4.875 0 8.824218 3.953125 8.824218 8.828125s-3.949218 8.828125-8.824218 8.828125zm0 0"/><path d="m132.414062 203.035156h-8.828124c-4.875 0-8.828126-3.953125-8.828126-8.828125s3.953126-8.828125 8.828126-8.828125h8.828124c4.875 0 8.828126 3.953125 8.828126 8.828125s-3.953126 8.828125-8.828126 8.828125zm0 0"/><path d="m176.550781 203.035156h-8.828125c-4.875 0-8.824218-3.953125-8.824218-8.828125s3.949218-8.828125 8.824218-8.828125h8.828125c4.875 0 8.828125 3.953125 8.828125 8.828125s-3.953125 8.828125-8.828125 8.828125zm0 0"/><path d="m220.691406 203.035156h-8.828125c-4.875 0-8.828125-3.953125-8.828125-8.828125s3.953125-8.828125 8.828125-8.828125h8.828125c4.875 0 8.824219 3.953125 8.824219 8.828125s-3.949219 8.828125-8.824219 8.828125zm0 0"/><path d="m264.828125 203.035156h-8.828125c-4.875 0-8.828125-3.953125-8.828125-8.828125s3.953125-8.828125 8.828125-8.828125h8.828125c4.875 0 8.828125 3.953125 8.828125 8.828125s-3.953125 8.828125-8.828125 8.828125zm0 0"/><path d="m308.964844 203.035156h-8.828125c-4.875 0-8.828125-3.953125-8.828125-8.828125s3.953125-8.828125 8.828125-8.828125h8.828125c4.875 0 8.828125 3.953125 8.828125 8.828125s-3.953125 8.828125-8.828125 8.828125zm0 0"/><path d="m353.101562 203.035156h-8.824218c-4.875 0-8.828125-3.953125-8.828125-8.828125s3.953125-8.828125 8.828125-8.828125h8.824218c4.878907 0 8.828126 3.953125 8.828126 8.828125s-3.949219 8.828125-8.828126 8.828125zm0 0"/><path d="m397.242188 203.035156h-8.828126c-4.875 0-8.828124-3.953125-8.828124-8.828125s3.953124-8.828125 8.828124-8.828125h8.828126c4.875 0 8.828124 3.953125 8.828124 8.828125s-3.953124 8.828125-8.828124 8.828125zm0 0"/><path d="m441.378906 203.035156h-8.828125c-4.875 0-8.828125-3.953125-8.828125-8.828125s3.953125-8.828125 8.828125-8.828125h8.828125c4.875 0 8.828125 3.953125 8.828125 8.828125s-3.953125 8.828125-8.828125 8.828125zm0 0"/><path d="m308.964844 467.863281h-185.378906c-4.875 0-8.828126-3.953125-8.828126-8.828125s3.953126-8.828125 8.828126-8.828125h185.378906c4.875 0 8.828125 3.953125 8.828125 8.828125s-3.953125 8.828125-8.828125 8.828125zm0 0"/><path d="m361.929688 467.863281h-17.652344c-4.875 0-8.828125-3.953125-8.828125-8.828125s3.953125-8.828125 8.828125-8.828125h17.652344c4.875 0 8.828124 3.953125 8.828124 8.828125s-3.953124 8.828125-8.828124 8.828125zm0 0"/></g><path d="m97.101562 0c9.753907 0 17.65625 7.90625 17.65625 17.65625v52.964844c0 9.75-7.902343 17.65625-17.65625 17.65625-9.75 0-17.652343-7.90625-17.652343-17.65625v-52.964844c0-9.75 7.902343-17.65625 17.652343-17.65625zm0 0" fill="#5e5f62"/><path d="m238.34375 0c9.75 0 17.65625 7.90625 17.65625 17.65625v52.964844c0 9.75-7.90625 17.65625-17.65625 17.65625s-17.652344-7.90625-17.652344-17.65625v-52.964844c0-9.75 7.902344-17.65625 17.652344-17.65625zm0 0" fill="#5e5f62"/><path d="m379.585938 0c9.75 0 17.65625 7.90625 17.65625 17.65625v52.964844c0 9.75-7.90625 17.65625-17.65625 17.65625s-17.65625-7.90625-17.65625-17.65625v-52.964844c0-9.75 7.90625-17.65625 17.65625-17.65625zm0 0" fill="#5e5f62"/><path d="m162.179688 364.128906 35.039062 34.921875 132.21875-162.78125c3.914062-4.8125 10.003906-7.316406 16.171875-6.644531 6.171875.667969 11.582031 4.421875 14.371094 9.964844v.042968c3.042969 6.054688 2.460937 13.296876-1.511719 18.785157l-139.640625 193.324219c-3.121094 4.335937-8.039063 7.023437-13.371094 7.3125-5.332031.292968-10.511719-1.847657-14.082031-5.820313l-56.5-62.527344c-5.007812-5.554687-6.105469-13.609375-2.761719-20.300781l.75-1.492188c2.628907-5.265624 7.625-8.949218 13.433594-9.894531 5.808594-.949219 11.71875.953125 15.882813 5.109375zm0 0" fill="#24ae5f"/></svg>