<?xml version="1.0" encoding="utf-8"?>

<!DOCTYPE svg PUBLIC "-//W3C//DTD SVG 1.1//EN" "http://www.w3.org/Graphics/SVG/1.1/DTD/svg11.dtd">
<!-- Uploaded to: SVG Repo, www.svgrepo.com, Generator: SVG Repo Mixer Tools -->
<svg height="800px" width="800px" version="1.1" id="_x32_" xmlns="http://www.w3.org/2000/svg" xmlns:xlink="http://www.w3.org/1999/xlink" 
	 viewBox="0 0 512 512"  xml:space="preserve">
<style type="text/css">
	.st0{fill:#000000;}
</style>
<g>
	<path class="st0" d="M268.145,12.149c-7.171,0-14.309,0.308-21.374,0.926l4.913,56.562h0.008c5.4-0.463,10.882-0.698,16.453-0.698
		c51.754,0.017,98.328,20.887,132.282,54.784c33.897,33.954,54.776,80.535,54.784,132.282
		c-0.008,51.747-20.887,98.329-54.784,132.274c-33.954,33.897-80.527,54.767-132.282,54.784
		c-51.747-0.017-98.328-20.887-132.273-54.784c-18.24-18.264-32.533-40.28-42.01-64.7l31.103-4.378l-80.243-117.25l-17.93,54.053
		h-2.486c0,2.193,0.26,4.321,0.325,6.505L0,336.766l36.406-5.116c31.859,97.614,123.487,168.184,231.739,168.201
		C402.839,499.835,511.992,390.689,512,256.004C511.992,121.311,402.839,12.157,268.145,12.149z"/>
	<path class="st0" d="M113.036,151.423c3.052-4.532,6.334-8.941,9.794-13.237l-44.146-35.708
		c-4.466,5.522-8.713,11.231-12.718,17.168l47.053,31.777H113.036z"/>
	<path class="st0" d="M193.757,84.312c9.079-3.939,18.54-7.172,28.293-9.648l-13.935-55.06c-12.758,3.232-25.11,7.471-36.967,12.62
		l22.609,52.08V84.312z"/>
	<path class="st0" d="M167.348,98.409l-30.665-47.808c-10.996,7.041-21.374,14.951-31.055,23.616l37.86,42.318
		C150.936,109.884,158.902,103.81,167.348,98.409z"/>
	<path class="st0" d="M236.644,244.034c8.999-10.248,14.447-20.895,14.447-34.49c0-23.022-16.518-40.58-43.699-40.58
		c-27.408,0-43.309,17.144-44.77,36.804c-0.22,1.259,0.43,2.307,1.68,2.518l22.99,3.751c1.479,0.211,2.299-0.414,2.299-1.672
		c1.25-10.874,7.13-16.73,16.737-16.73c9.834,0,15.478,6.911,15.478,16.315c0,7.31-2.931,13.375-8.356,19.67l-49.985,59.38
		c-0.844,1.048-1.064,1.665-1.064,2.924v19.449c0,1.259,0.844,2.087,2.095,2.087h84.499c1.251,0,2.095-0.828,2.095-2.087v-20.708
		c0-1.242-0.844-2.079-2.095-2.079h-49.774v-0.422L236.644,244.034z"/>
	<path class="st0" d="M351.92,173.358c0.422-1.259,0-2.104-1.446-2.104h-26.58c-1.454,0-2.29,0.422-2.907,1.681l-42.668,93.894
		l-0.414,2.517v21.318c0,1.259,0.836,2.096,2.096,2.096h55.409l1.251,1.258v17.354c0,1.259,0.844,2.087,2.103,2.087h24.249
		c1.259,0,2.096-0.828,2.096-2.087v-17.354l1.258-1.258h9.413c1.234,0,2.071-0.837,2.071-2.096v-21.106
		c0-1.258-0.837-2.103-2.071-2.103h-9.413l-1.258-1.259v-30.729c0-1.251-0.837-2.095-2.096-2.095h-24.249
		c-1.259,0-2.103,0.844-2.103,2.095v30.729l-1.251,1.259h-26.125v-0.625L351.92,173.358z"/>
</g>
</svg>