<?xml version="1.0" encoding="utf-8"?><!-- Uploaded to: SVG Repo, www.svgrepo.com, Generator: SVG Repo Mixer Tools -->
<svg fill="#000000" width="800px" height="800px" viewBox="0 0 24 24" id="Layer_1" data-name="Layer 1" xmlns="http://www.w3.org/2000/svg">
<path d="M23,11a1,1,0,0,0-1,1,10.034,10.034,0,1,1-2.9-7.021A.862.862,0,0,1,19,5H16a1,1,0,0,0,0,2h3a3,3,0,0,0,3-3V1a1,1,0,0,0-2,0V3.065A11.994,11.994,0,1,0,24,12,1,1,0,0,0,23,11Z
M12,6a1,1,0,0,0-1,1v5a1,1,0,0,0,.293.707l3,3a1,1,0,0,0,1.414-1.414L13,11.586V7A1,1,0,0,0,12,6Z"/></svg>