<?xml version="1.0" encoding="utf-8"?><!-- Uploaded to: SVG Repo, www.svgrepo.com, Generator: SVG Repo Mixer Tools -->
<svg fill="#000000" width="800px" height="800px" viewBox="0 0 24 24" xmlns="http://www.w3.org/2000/svg"><path d="M20,3a1,1,0,0,0,0-2H4A1,1,0,0,0,4,3H5.049c.146,1.836.743,5.75,3.194,8-2.585,2.511-3.111,7.734-3.216,10H4a1,1,0,0,0,0,2H20a1,1,0,0,0,0-2H18.973c-.105-2.264-.631-7.487-3.216-10,2.451-2.252,3.048-6.166,3.194-8Zm-6.42,7.126a1,1,0,0,0,.035,1.767c2.437,1.228,3.2,6.311,3.355,9.107H7.03c.151-2.8.918-7.879,3.355-9.107a1,1,0,0,0,.035-1.767C7.881,8.717,7.227,4.844,7.058,3h9.884C16.773,4.844,16.119,8.717,13.58,10.126ZM12,13s3,2.4,3,3.6V20H9V16.6C9,15.4,12,13,12,13Z"/></svg>