<?xml version="1.0" encoding="utf-8"?><!-- Uploaded to: SVG Repo, www.svgrepo.com, Generator: SVG Repo Mixer Tools -->
<svg width="800px" height="800px" viewBox="-0.5 0 25 25" fill="none" xmlns="http://www.w3.org/2000/svg">
<path d="M8.25 0.75H2.25C1.42157 0.75 0.75 1.42157 0.75 2.25V8.25C0.75 9.07843 1.42157 9.75 2.25 9.75H8.25C9.07843 9.75 9.75 9.07843 9.75 8.25V2.25C9.75 1.42157 9.07843 0.75 8.25 0.75Z" stroke="#71717A" stroke-width="1.5" stroke-linecap="round" stroke-linejoin="round"/>
<path d="M8.25 14.25H2.25C1.42157 14.25 0.75 14.9216 0.75 15.75V21.75C0.75 22.5784 1.42157 23.25 2.25 23.25H8.25C9.07843 23.25 9.75 22.5784 9.75 21.75V15.75C9.75 14.9216 9.07843 14.25 8.25 14.25Z" stroke="#71717A" stroke-width="1.5" stroke-linecap="round" stroke-linejoin="round"/>
<path d="M21.75 0.75H15.75C14.9216 0.75 14.25 1.42157 14.25 2.25V8.25C14.25 9.07843 14.9216 9.75 15.75 9.75H21.75C22.5784 9.75 23.25 9.07843 23.25 8.25V2.25C23.25 1.42157 22.5784 0.75 21.75 0.75Z" stroke="#71717A" stroke-width="1.5" stroke-linecap="round" stroke-linejoin="round"/>
<path d="M21.75 14.25H15.75C14.9216 14.25 14.25 14.9216 14.25 15.75V21.75C14.25 22.5784 14.9216 23.25 15.75 23.25H21.75C22.5784 23.25 23.25 22.5784 23.25 21.75V15.75C23.25 14.9216 22.5784 14.25 21.75 14.25Z" stroke="#71717A" stroke-width="1.5" stroke-linecap="round" stroke-linejoin="round"/>
</svg>