<?xml version="1.0" encoding="utf-8"?>
<!-- Uploaded to: SVG Repo, www.svgrepo.com, Generator: SVG Repo Mixer Tools -->
<svg width="800px" height="800px" viewBox="0 0 24 24" fill="none" xmlns="http://www.w3.org/2000/svg">
<path d="M7.5 17C6.56538 17 6.09808 17 5.75 16.799C5.52197 16.6674 5.33261 16.478 5.20096 16.25C5 15.9019 5 15.4346 5 14.5L5 5.5C5 4.56538 5 4.09808 5.20096 3.75C5.33261 3.52197 5.52197 3.33261 5.75 3.20096C6.09808 3 6.56538 3 7.5 3C8.43462 3 8.90192 3 9.25 3.20096C9.47803 3.33261 9.66739 3.52197 9.79904 3.75C10 4.09808 10 4.56538 10 5.5V14.5C10 15.4346 10 15.9019 9.79904 16.25C9.66739 16.478 9.47803 16.6674 9.25 16.799C8.90192 17 8.43462 17 7.5 17Z" fill="#1C274C"/>
<path d="M16.5 17C15.5654 17 15.0981 17 14.75 16.799C14.522 16.6674 14.3326 16.478 14.201 16.25C14 15.9019 14 15.4346 14 14.5V8.5C14 7.56538 14 7.09808 14.201 6.75C14.3326 6.52197 14.522 6.33261 14.75 6.20096C15.0981 6 15.5654 6 16.5 6C17.4346 6 17.9019 6 18.25 6.20096C18.478 6.33261 18.6674 6.52197 18.799 6.75C19 7.09808 19 7.56538 19 8.5V14.5C19 15.4346 19 15.9019 18.799 16.25C18.6674 16.478 18.478 16.6674 18.25 16.799C17.9019 17 17.4346 17 16.5 17Z" fill="#1C274C"/>
<g opacity="0.5">
<path fill-rule="evenodd" clip-rule="evenodd" d="M1.25 21C1.25 20.5858 1.58579 20.25 2 20.25H22C22.4142 20.25 22.75 20.5858 22.75 21C22.75 21.4142 22.4142 21.75 22 21.75H2C1.58579 21.75 1.25 21.4142 1.25 21Z" fill="#1C274C"/>
</g>
</svg>