<?xml version="1.0" encoding="iso-8859-1"?>
<!-- Uploaded to: SVG Repo, www.svgrepo.com, Generator: SVG Repo Mixer Tools -->
<svg version="1.1" id="Layer_1" xmlns="http://www.w3.org/2000/svg" xmlns:xlink="http://www.w3.org/1999/xlink" 
	 viewBox="0 0 512.001 512.001" xml:space="preserve">
<path style="fill:#FFBD42;" d="M33.052,356.136l-0.822,0.822l0,0L0.613,485.716c-1.77,7.209,0.355,14.819,5.604,20.068
	l88.242-88.242L33.052,356.136z"/>
<path style="fill:#30767A;" d="M502.599,86.817L425.182,9.402c-12.536-12.536-32.86-12.536-45.396,0L311.18,78.008l-10.078,10.078
	L32.23,356.957l0,0L0.613,485.716c-1.77,7.209,0.355,14.819,5.604,20.068c5.249,5.249,12.858,7.374,20.068,5.604l128.759-31.617l0,0
	l268.873-268.873l10.078-10.078l68.606-68.606C515.135,119.677,515.135,99.353,502.599,86.817z"/>
<path style="fill:#007066;" d="M425.182,9.402c-12.536-12.536-32.86-12.536-45.396,0L311.18,78.008l-10.078,10.078L32.23,356.957
	l0,0L0.613,485.716c-1.77,7.209,0.355,14.819,5.604,20.068L463.891,48.11L425.182,9.402z"/>
<path style="fill:#4AB6BF;" d="M425.182,9.402c-12.536-12.536-32.86-12.536-45.396,0L311.18,78.008l-10.078,10.078L32.23,356.957
	l0,0L0.613,485.716c-1.77,7.209,0.355,14.819,5.604,20.068L463.891,48.11L425.182,9.402z"/>
<path style="fill:#940009;" d="M466.265,168.547l36.334-36.334c12.536-12.536,12.536-32.86,0-45.396L425.182,9.402
	c-12.536-12.536-32.86-12.536-45.396,0l-36.334,36.334L466.265,168.547z"/>
<path style="fill:#FF0029;" d="M463.891,48.11L425.182,9.402c-12.536-12.536-32.86-12.536-45.396,0l-36.334,36.334l61.407,61.407
	L463.891,48.11z"/>
<path style="fill:#F7DC4D;" d="M33.052,356.136l-0.822,0.822l0,0L0.613,485.716c-1.77,7.209,0.355,14.819,5.604,20.068
	c5.249,5.249,12.858,7.374,20.068,5.604l128.759-31.617l0,0l0.822-0.822L33.052,356.136z"/>
<rect x="297.713" y="90.415" transform="matrix(-0.7071 -0.7071 0.7071 -0.7071 566.3668 489.469)" style="fill:#FF9800;" width="173.685" height="74.042"/>
<polygon style="fill:#F7DC4D;" points="410.735,101.265 349.328,39.86 311.18,78.007 301.103,88.085 296.972,92.217 
	358.378,153.622 "/>
<path style="fill:#2D2B27;" d="M11.138,442.855l-10.524,42.86c-1.77,7.209,0.355,14.819,5.604,20.068
	c5.249,5.249,12.858,7.374,20.068,5.604l42.86-10.525L11.138,442.855z"/>
<path style="fill:#403E3B;" d="M11.138,442.855l-10.524,42.86c-1.77,7.209,0.355,14.819,5.604,20.068l33.925-33.925L11.138,442.855z
	"/>
</svg>