<!DOCTYPE svg PUBLIC "-//W3C//DTD SVG 1.1//EN" "http://www.w3.org/Graphics/SVG/1.1/DTD/svg11.dtd">
<!-- Uploaded to: SVG Repo, www.svgrepo.com, Transformed by: SVG Repo Mixer Tools -->
<svg width="184px" height="184px" viewBox="0 0 64 64" xmlns="http://www.w3.org/2000/svg" xmlns:xlink="http://www.w3.org/1999/xlink" aria-hidden="true" role="img" class="iconify iconify--emojione" preserveAspectRatio="xMidYMid meet" fill="#000000">
<g id="SVGRepo_bgCarrier" stroke-width="0"/>
<g id="SVGRepo_tracerCarrier" stroke-linecap="round" stroke-linejoin="round"/>
<g id="SVGRepo_iconCarrier"> <path d="M28 58c0 2.2 1.8 4 4 4s4-1.8 4-4h-8" fill="#616466"> </path> <path d="M24.9 48H39c.8-4.3 3.5-8.5 6.3-12.9C48.6 30 52 24.7 52 19.6C52 9.9 43 2 32 2S12 9.9 12 19.6c0 5.1 3.4 10.4 6.6 15.5c2.8 4.4 5.5 8.6 6.3 12.9" fill="#ffce31"> </path> <path d="M26.4 33.6c.1.6.3 1.2.4 1.8c.3 1.1.5 2.1.8 3.2c.9 3.8 1.7 7 2.4 9.5h.6c-.5-2.5-1.2-5.8-2.1-9.6c-.2-1-.5-2.1-.7-3.2c-.1-.5-.2-1.1-.4-1.6c.8-.2 2.7-.8 4.6-2.9c1.9 2.1 3.8 2.7 4.6 2.9c-.1.6-.2 1.1-.4 1.6c-.2 1.1-.5 2.2-.7 3.2c-.9 3.8-1.6 7.1-2.1 9.6h.6c.6-2.5 1.5-5.7 2.4-9.5c.2-1 .5-2.1.8-3.2c.1-.6.3-1.2.4-1.8c.8-.1 1.5-.3 2-.8c.6-.6.9-1.3.7-2.1c-.1-.4-.3-.9-.9-1c-.3-.1-.5-.1-.8 0c-.3.1-.5.3-.6.4c-.5.6-.7 1.2-.9 1.8l-.3.9s-.8.1-2.7-1.2c-1-.7-1.3-1.2-1.6-1.5c.3-.4.6-.7.9-1.2c.1-.3.2-.5.3-.9c0-.3 0-.7-.2-1c-.2-.3-.4-.6-.9-.8c-.2-.1-.4-.1-.6-.1s-.4 0-.6.1c-.4.2-.7.5-.9.8c-.2.3-.2.7-.2 1c0 .3.1.6.3.9c.2.5.5.9.9 1.2c-.3.3-.6.8-1.6 1.5c-1.8 1.2-2.7 1.2-2.7 1.2l-.3-.9c-.2-.6-.4-1.2-.9-1.8c-.1-.1-.3-.3-.6-.4c-.3-.1-.6-.1-.8 0c-.6.2-.8.7-.9 1c-.1.8.2 1.5.7 2.1c.6.5 1.3.7 2 .8M38 32.1c.2-.5.4-1.1.8-1.4c.1-.1.2-.1.2-.1h.2c.1 0 .2.1.3.4c.1.4-.1 1-.5 1.3c-.3.2-.7.4-1.1.5c0-.3 0-.5.1-.7m-6.6-4.8c.2-.2.4-.4.6-.4c.2 0 .4.1.6.4c.2.3.1.7-.1 1.1c-.1.3-.3.6-.5.8c-.2-.3-.4-.5-.5-.8c-.2-.3-.3-.7-.1-1.1m-6.8 3.5c0-.2.1-.3.3-.4h.2s.1.1.2.1c.3.3.6.9.8 1.4c.1.2.1.4.2.6c-.4-.1-.8-.2-1.1-.5c-.4-.2-.6-.7-.6-1.2" fill="#c79127"> </path> <g fill="#94989b"> <path d="M24.9 50h14.3v1.8H24.9z"> </path> <path d="M25.9 53.6h12.3v1.8H25.9z"> </path> </g> <path fill="#616466" d="M25.9 51.8h12.3v1.8H25.9z"> </path> <g fill="#94989b"> <path d="M39.2 50l-13.3 3.6v1.9l13.3-3.7z"> </path> <path d="M26.9 57.3h10.3v1.8H26.9z"> </path> </g> <path fill="#616466" d="M26.9 55.5h10.3v1.8H26.9z"> </path> <path fill="#94989b" d="M38.2 53.6l-11.3 3.7v1.9l11.3-3.7z"> </path> </g>
</svg>