<?xml version="1.0" encoding="utf-8"?>
<!-- Uploaded to: SVG Repo, www.svgrepo.com, Generator: SVG Repo Mixer Tools -->
<svg width="800px" height="800px" viewBox="0 -84 1192 1192" class="icon"  version="1.1" xmlns="http://www.w3.org/2000/svg"><path d="M669.591 153.454c-18.985-2.194-296.93-29.681-420.625 185.388-82.721 143.802-64.011 339.6 49.164 450.18 95.362 93.18 224.617 93.417 280.587 93.492 45.125 0.087 195.236 0.374 310.206-112.714 99.725-98.042 167.799-276.236 92.693-426.894-81.163-162.725-275.625-185.238-312.025-189.452z" fill="#FA1919" /><path d="M886.404 222.775c-12.902 6.706 33.743 77.013 39.89 176.226 11.942 191.172-135.638 340.31-152.727 357.138-97.905 96.222-199.3 114.683-194.912 126.413 5.809 15.581 186.982 9.786 310.206-112.714 116.528-115.929 145.723-298.874 92.693-426.894-28.558-69.047-82.871-126.55-95.151-120.168zM746.888 267.552c2.493-23.137 20.282-32.411 14.846-41.746-7.403-12.652-42.52 1.048-119.669 6.494-20.568 1.446-30.852 2.183-44.54 1.857-74.656-1.695-118.685-29.119-125.766-17.901-4.264 6.757 12.155 16.068 18.113 36.237 16.056 54.25-64.61 115.929-54.736 128.271 11.406 14.31 117.014-70.319 160.507-38.967 19.397 13.986 19.060 45.737 34.33 46.385 12.216 0.524 15.158-19.658 31.55-32.411 41.81-32.698 124.854 18.698 133.768 3.54 7.53-12.902-53.241-46.484-48.403-91.759z" fill="#C40000" /><path d="M570.564 907.508c-27.249 0-75.005-1.109-130.252-14.348-76.788-18.386-142.107-53.926-194.251-105.633-40.226-39.89-73.546-90.513-96.26-146.358-1.45-3.066-2.297-6.66-2.297-10.452 0-13.77 11.162-24.931 24.931-24.931 10.772 0 19.949 6.832 23.434 16.4 20.3 49.849 49.755 94.725 85.257 129.94 107.203 106.418 250.383 105.708 297.415 105.483 46.197-0.224 186.785-0.922 292.816-105.532 104.312-102.916 160.718-293.576 74.544-434.486-91.447-149.524-290.123-150.696-364.942-151.194-76.041-0.449-278.232-1.645-371.897 151.17-28.446 46.484-42.819 99.899-42.708 158.836 0 13.77-11.162 24.931-24.931 24.931 0 0 0 0 0 0-13.77 0-24.931-11.162-24.931-24.931 0 0 0 0 0 0-0.125-67.314 17.177-131.287 50.063-184.927 46.597-76.041 120.916-128.033 220.977-154.572 79.443-20.993 153.787-20.543 193.727-20.369 39.504 0.287 113.025 0.723 190.922 22.14 97.942 26.926 170.779 78.37 216.315 152.915 23.685 38.818 39.104 82.272 45.687 129.231 6.097 43.492 4.525 88.868-4.649 134.865-17.452 87.409-62.328 171.937-123.097 231.86-51.508 50.81-115.841 86.013-191.247 104.635-60.322 14.897-111.666 15.146-136.348 15.271z" fill="#000000" /><path d="M148.692 575.625c-12.093-0.020-22.164-8.645-24.419-20.078q-0.387-2.023-0.735-3.893c-0.262-1.357-0.412-2.917-0.412-4.513 0-13.773 11.165-24.938 24.938-24.938 12.177 0 22.315 8.728 24.502 20.271q0.336 1.838 0.661 3.508c0.286 1.417 0.45 3.045 0.45 4.713 0 13.77-11.162 24.931-24.931 24.931-0.008 0-0.019 0-0.027 0z" fill="#000000" /><path d="M579.962 137.723c13.375-9.973 44.951 0.188 56.207 19.944 11.431 20.107-5.697 36.886 4.225 51.247 18.412 26.627 96.807-3.739 103.141 12.652 3.278 8.439-16.268 15.557-21.653 35.016-11.73 42.382 58.426 89.839 50.15 101.918-9.337 13.625-97.232-48.902-136.111-19.447-19.209 14.548-17.452 44.689-28.421 44.876-13.6 0.224-11.93-46.622-37.396-61.331-42.708-24.669-130.003 59.449-141.348 47.12-10.185-11.069 62.964-75.753 44.128-127.884-6.358-17.602-20.182-25.404-16.455-32.909 8.588-17.277 88.942 24.321 113.675-2.992 17.29-19.048-7.179-55.497 9.86-68.211z" fill="#6BE166" /></svg>