<?xml version="1.0" encoding="utf-8"?><!-- Uploaded to: SVG Repo, www.svgrepo.com, Generator: SVG Repo Mixer Tools -->
<svg fill="#000000" width="800px" height="800px" viewBox="0 0 24 24" id="settings" data-name="Flat Color" xmlns="http://www.w3.org/2000/svg" class="icon flat-color"><path id="primary" d="M20.89,9.78h-.65a1.16,1.16,0,0,1-1-.74V9a1.13,1.13,0,0,1,.22-1.26l.46-.46a1.13,1.13,0,0,0,0-1.58L18.29,4.14a1.13,1.13,0,0,0-1.58,0l-.46.46A1.13,1.13,0,0,1,15,4.82h0a1.16,1.16,0,0,1-.74-1V3.11A1.11,1.11,0,0,0,13.11,2H10.89A1.11,1.11,0,0,0,9.78,3.11v.65a1.16,1.16,0,0,1-.74,1H9A1.13,1.13,0,0,1,7.75,4.6l-.46-.46a1.13,1.13,0,0,0-1.58,0L4.14,5.71a1.13,1.13,0,0,0,0,1.58l.46.46A1.13,1.13,0,0,1,4.82,9V9a1.16,1.16,0,0,1-1,.74H3.11A1.11,1.11,0,0,0,2,10.89v2.22a1.11,1.11,0,0,0,1.11,1.11h.65a1.16,1.16,0,0,1,1,.74v0a1.13,1.13,0,0,1-.22,1.26l-.46.46a1.13,1.13,0,0,0,0,1.58l1.57,1.57a1.13,1.13,0,0,0,1.58,0l.46-.46A1.13,1.13,0,0,1,9,19.18H9a1.16,1.16,0,0,1,.74,1v.65A1.11,1.11,0,0,0,10.89,22h2.22a1.11,1.11,0,0,0,1.11-1.11v-.65a1.16,1.16,0,0,1,.74-1h0a1.13,1.13,0,0,1,1.26.22l.46.46a1.13,1.13,0,0,0,1.58,0l1.57-1.57a1.13,1.13,0,0,0,0-1.58l-.46-.46A1.13,1.13,0,0,1,19.18,15v0a1.16,1.16,0,0,1,1-.74h.65A1.11,1.11,0,0,0,22,13.11V10.89A1.11,1.11,0,0,0,20.89,9.78Z" style="fill: rgb(0, 0, 0);"></path><circle id="secondary" cx="12" cy="12" r="4" style="fill: rgb(44, 169, 188);"></circle></svg>