<?xml version="1.0" encoding="iso-8859-1"?>
<!-- Generator: Adobe Illustrator 18.1.1, SVG Export Plug-In . SVG Version: 6.00 Build 0)  -->
<svg version="1.1" id="Capa_1" xmlns="http://www.w3.org/2000/svg" xmlns:xlink="http://www.w3.org/1999/xlink" x="0px" y="0px"
	 viewBox="0 0 30.065 30.065" style="enable-background:new 0 0 30.065 30.065;" xml:space="preserve">
<g>
	<path style="fill:#030104;" d="M14.336,16.16c0,0-3.516,3.422-4.887,7.354v1.072h11.166v-1.072
		c-1.781-4.341-4.885-7.354-4.885-7.354H14.336z"/>
	<path style="fill:#030104;" d="M24.642,4.909V3.221h1.602V0H3.822v3.221h1.602v1.688c0,2.579,4.625,9.62,4.846,10.128
		c-0.215,0.508-4.846,7.549-4.846,10.119v1.684H3.822v3.225h22.422V26.84h-1.602v-1.684c0-2.581-4.631-9.576-4.875-10.123
		C20.01,14.485,24.642,7.488,24.642,4.909z M23.038,25.157v1.684H7.025v-1.684c0-1.856,4.906-9.197,4.906-10.123
		c0-0.932-4.906-8.271-4.906-10.125V3.221h16.014v1.688c0,1.854-4.945,9.193-4.945,10.125
		C18.093,15.959,23.038,23.301,23.038,25.157z"/>
</g>
<g>
</g>
<g>
</g>
<g>
</g>
<g>
</g>
<g>
</g>
<g>
</g>
<g>
</g>
<g>
</g>
<g>
</g>
<g>
</g>
<g>
</g>
<g>
</g>
<g>
</g>
<g>
</g>
<g>
</g>
</svg>
